<svg width="25" height="23" viewBox="0 0 25 23" fill="none" xmlns="http://www.w3.org/2000/svg">
<path d="M16.6667 5.2908C16.6667 5.01736 16.5582 4.7526 16.3628 4.55729L12.1137 0.303819C11.9184 0.108507 11.6536 0 11.3759 0H11.1111V5.55556H16.6667V5.2908ZM24.783 13.3681L20.6293 9.18403C20.191 8.74566 19.4401 9.05382 19.4401 9.67448V12.5H16.6623V15.2778H19.4401V18.1076C19.4401 18.7283 20.191 19.0365 20.6293 18.5981L24.783 14.4097C25.0694 14.1233 25.0694 13.6545 24.783 13.3681ZM8.33333 14.5833V13.1944C8.33333 12.8125 8.64583 12.5 9.02778 12.5H16.6667V6.94444H10.7639C10.191 6.94444 9.72222 6.47569 9.72222 5.90278V0H1.04167C0.46441 0 0 0.46441 0 1.04167V21.1806C0 21.7578 0.46441 22.2222 1.04167 22.2222H15.625C16.2023 22.2222 16.6667 21.7578 16.6667 21.1806V15.2778H9.02778C8.64583 15.2778 8.33333 14.9653 8.33333 14.5833Z" fill="black"/>
</svg>
