<svg width="32" height="23" viewBox="0 0 32 23" fill="none" xmlns="http://www.w3.org/2000/svg">
<path d="M3.6 2.8C3.6 2.05739 3.895 1.3452 4.4201 0.820101C4.9452 0.294999 5.65739 0 6.4 0C7.14261 0 7.8548 0.294999 8.3799 0.820101C8.905 1.3452 9.2 2.05739 9.2 2.8C9.2 3.54261 8.905 4.2548 8.3799 4.7799C7.8548 5.305 7.14261 5.6 6.4 5.6C5.65739 5.6 4.9452 5.305 4.4201 4.7799C3.895 4.2548 3.6 3.54261 3.6 2.8ZM3.2 10.685C2.7 11.245 2.4 11.99 2.4 12.8C2.4 13.61 2.7 14.355 3.2 14.915V10.685ZM10.42 8.22C8.935 9.535 8 11.46 8 13.6C8 15.315 8.6 16.89 9.6 18.125V19.2C9.6 20.085 8.885 20.8 8 20.8H4.8C3.915 20.8 3.2 20.085 3.2 19.2V17.86C1.31 16.96 0 15.035 0 12.8C0 9.705 2.505 7.2 5.6 7.2H7.2C8.4 7.2 9.51 7.575 10.42 8.215V8.22ZM22.4 19.2V18.125C23.4 16.89 24 15.315 24 13.6C24 11.46 23.065 9.535 21.58 8.215C22.49 7.575 23.6 7.2 24.8 7.2H26.4C29.495 7.2 32 9.705 32 12.8C32 15.035 30.69 16.96 28.8 17.86V19.2C28.8 20.085 28.085 20.8 27.2 20.8H24C23.115 20.8 22.4 20.085 22.4 19.2ZM22.8 2.8C22.8 2.05739 23.095 1.3452 23.6201 0.820101C24.1452 0.294999 24.8574 0 25.6 0C26.3426 0 27.0548 0.294999 27.5799 0.820101C28.105 1.3452 28.4 2.05739 28.4 2.8C28.4 3.54261 28.105 4.2548 27.5799 4.7799C27.0548 5.305 26.3426 5.6 25.6 5.6C24.8574 5.6 24.1452 5.305 23.6201 4.7799C23.095 4.2548 22.8 3.54261 22.8 2.8ZM28.8 10.685V14.92C29.3 14.355 29.6 13.615 29.6 12.805C29.6 11.995 29.3 11.25 28.8 10.69V10.685ZM16 0C16.8487 0 17.6626 0.337142 18.2627 0.937258C18.8629 1.53737 19.2 2.35131 19.2 3.2C19.2 4.04869 18.8629 4.86263 18.2627 5.46274C17.6626 6.06286 16.8487 6.4 16 6.4C15.1513 6.4 14.3374 6.06286 13.7373 5.46274C13.1371 4.86263 12.8 4.04869 12.8 3.2C12.8 2.35131 13.1371 1.53737 13.7373 0.937258C14.3374 0.337142 15.1513 0 16 0ZM12 13.6C12 14.41 12.3 15.15 12.8 15.715V11.485C12.3 12.05 12 12.79 12 13.6ZM19.2 11.485V15.72C19.7 15.155 20 14.415 20 13.605C20 12.795 19.7 12.05 19.2 11.49V11.485ZM22.4 13.6C22.4 15.835 21.09 17.76 19.2 18.66V20.8C19.2 21.685 18.485 22.4 17.6 22.4H14.4C13.515 22.4 12.8 21.685 12.8 20.8V18.66C10.91 17.76 9.6 15.835 9.6 13.6C9.6 10.505 12.105 8 15.2 8H16.8C19.895 8 22.4 10.505 22.4 13.6Z" fill="black"/>
</svg>
