<svg width="25" height="25" viewBox="0 0 25 25" fill="none" xmlns="http://www.w3.org/2000/svg">
<path d="M15.542 10.293C15.542 11.2939 14.7266 12.1094 13.7256 12.1094H10.293V8.47656H13.7256C14.7266 8.47656 15.542 9.29199 15.542 10.293ZM24.2188 12.1094C24.2188 18.7988 18.7988 24.2188 12.1094 24.2188C5.41992 24.2188 0 18.7988 0 12.1094C0 5.41992 5.41992 0 12.1094 0C18.7988 0 24.2188 5.41992 24.2188 12.1094ZM17.9639 10.293C17.9639 7.9541 16.0645 6.05469 13.7256 6.05469H7.87109V18.1641H10.293V14.5312H13.7256C16.0645 14.5312 17.9639 12.6318 17.9639 10.293Z" fill="black"/>
</svg>
