<svg width="32" height="26" viewBox="0 0 32 26" fill="none" xmlns="http://www.w3.org/2000/svg">
<path d="M4.00075 2.4C4.00075 1.76348 4.25361 1.15303 4.70369 0.702944C5.15378 0.252856 5.76423 0 6.40075 0C7.03727 0 7.64772 0.252856 8.09781 0.702944C8.54789 1.15303 8.80075 1.76348 8.80075 2.4C8.80075 3.03652 8.54789 3.64697 8.09781 4.09706C7.64772 4.54714 7.03727 4.8 6.40075 4.8C5.76423 4.8 5.15378 4.54714 4.70369 4.09706C4.25361 3.64697 4.00075 3.03652 4.00075 2.4ZM7.20075 12.085V15.34L9.75075 17.89C10.1057 18.245 10.3407 18.7 10.4207 19.195L11.1807 23.74C11.3257 24.61 10.7357 25.435 9.86575 25.58C8.99575 25.725 8.17075 25.135 8.02575 24.265L7.31075 19.97L3.34075 16C2.74075 15.4 2.40075 14.585 2.40075 13.735V9.33C2.40075 7.71 3.71075 6.4 5.33075 6.4C6.53575 6.4 7.65575 7 8.32575 8L10.6957 11.555L11.2007 11.805V8C11.2007 7.115 11.9157 6.4 12.8007 6.4H19.2008C20.0857 6.4 20.8007 7.115 20.8007 8V11.81L21.3057 11.56L23.6757 8C24.3407 7 25.4657 6.4 26.6707 6.4C28.2907 6.4 29.6007 7.71 29.6007 9.33V13.735C29.6007 14.585 29.2657 15.4 28.6657 16L24.6957 19.97L23.9807 24.265C23.8358 25.135 23.0107 25.725 22.1407 25.58C21.2707 25.435 20.6807 24.61 20.8258 23.74L21.5858 19.195C21.6658 18.7 21.9007 18.245 22.2558 17.89L24.8057 15.34V12.085L23.8557 13.51C23.6257 13.86 23.3057 14.14 22.9307 14.325L19.9508 15.815C19.8307 15.88 19.7057 15.925 19.5707 15.955C19.4408 15.985 19.3057 16 19.1757 15.995H12.8357C12.7107 16 12.5857 15.985 12.4607 15.96C12.3157 15.93 12.1807 15.88 12.0557 15.81L9.08075 14.32C8.70575 14.135 8.39075 13.85 8.15575 13.505L7.20575 12.08L7.20075 12.085ZM0.115749 23.405L2.50575 17.43L4.96575 19.89L3.08575 24.59C2.75575 25.41 1.82575 25.81 1.00575 25.48C0.185749 25.15 -0.214251 24.225 0.115749 23.405ZM25.6007 0C26.2373 0 26.8477 0.252856 27.2978 0.702944C27.7479 1.15303 28.0007 1.76348 28.0007 2.4C28.0007 3.03652 27.7479 3.64697 27.2978 4.09706C26.8477 4.54714 26.2373 4.8 25.6007 4.8C24.9642 4.8 24.3538 4.54714 23.9037 4.09706C23.4536 3.64697 23.2008 3.03652 23.2008 2.4C23.2008 1.76348 23.4536 1.15303 23.9037 0.702944C24.3538 0.252856 24.9642 0 25.6007 0ZM29.4957 17.43L31.8857 23.405C32.2157 24.225 31.8158 25.155 30.9957 25.485C30.1757 25.815 29.2457 25.415 28.9157 24.595L27.0357 19.895L29.4957 17.435V17.43Z" fill="black"/>
</svg>
