<svg width="40" height="33" viewBox="0 0 40 33" fill="none" xmlns="http://www.w3.org/2000/svg">
<path d="M39.456 28.5306L31.6664 22.1053C31.3148 21.8153 30.8382 21.6541 30.3382 21.6541H29.0646C31.221 19.3792 32.5024 16.5177 32.5024 13.4049C32.5024 6 25.2284 0 16.2512 0C7.27397 0 0 6 0 13.4049C0 20.8099 7.27397 26.8099 16.2512 26.8099C20.0249 26.8099 23.4939 25.753 26.2519 23.9742V25.0247C26.2519 25.4372 26.4472 25.8303 26.7988 26.1203L34.5885 32.5457C35.3229 33.1514 36.5105 33.1514 37.2371 32.5457L39.4482 30.7218C40.1826 30.116 40.1826 29.1364 39.456 28.5306ZM16.2512 21.6541C10.7273 21.6541 6.25046 17.9678 6.25046 13.4049C6.25046 8.84855 10.7195 5.15575 16.2512 5.15575C21.775 5.15575 26.2519 8.8421 26.2519 13.4049C26.2519 17.9613 21.7828 21.6541 16.2512 21.6541Z" fill="#242222"/>
</svg>
