<svg width="37" height="28" viewBox="0 0 37 28" fill="none" xmlns="http://www.w3.org/2000/svg">
<path fill-rule="evenodd" clip-rule="evenodd" d="M10.4062 6.125L11.8597 7.22493L17.0465 11.1501L18.5 12.25L19.9535 11.1501L25.1403 7.22493L26.5938 6.125L25.1403 5.02507L19.9535 1.09995L18.5 0L17.0465 1.09995L11.8597 5.02507L10.4062 6.125ZM23.6868 6.125L18.5 10.0501L13.3132 6.125L18.5 2.19988L23.6868 6.125ZM10.4062 21.875L11.8597 22.9749L17.0465 26.9001L18.5 28L19.9535 26.9001L25.1403 22.9749L26.5938 21.875L25.1403 20.7751L19.9535 16.8499L18.5 15.75L17.0465 16.8499L11.8597 20.7751L10.4062 21.875ZM23.6868 21.875L18.5 25.8001L13.3132 21.875L18.5 17.9499L23.6868 21.875ZM1.4535 15.0999L0 14L1.4535 12.9001L6.64027 8.97493L8.09375 7.875L9.54723 8.97493L14.734 12.9001L16.1875 14L14.734 15.0999L9.54723 19.0251L8.09375 20.125L6.64027 19.0251L1.4535 15.0999ZM8.09375 17.9251L13.2805 14L8.09375 10.0749L2.90699 14L8.09375 17.9251ZM20.8125 14L22.266 15.0999L27.4528 19.0251L28.9062 20.125L30.3597 19.0251L35.5465 15.0999L37 14L35.5465 12.9001L30.3597 8.97493L28.9062 7.875L27.4528 8.97493L22.266 12.9001L20.8125 14ZM34.093 14L28.9062 17.9251L23.7195 14L28.9062 10.0749L34.093 14Z" fill="black"/>
</svg>
