<svg width="28" height="21" viewBox="0 0 28 21" fill="none" xmlns="http://www.w3.org/2000/svg">
<path d="M4.29975 0.205566C3.78025 -0.0979422 3.04201 -0.0610289 2.57172 0.287596L0.384341 1.92818C-0.0804771 2.27681 -0.129693 2.8305 0.269504 3.22425L4.64426 7.48977C4.89034 7.73176 5.2786 7.87531 5.68327 7.87531H8.6417L14.6023 12.3459C13.7984 13.5353 14.0555 15.0283 15.3843 16.0208L21.509 20.6145C22.1925 21.1271 23.3026 21.1271 23.9862 20.6145L27.486 17.9895C28.1695 17.4768 28.1695 16.6442 27.486 16.1316L21.3613 11.5379C20.0379 10.5454 18.0474 10.3485 16.4616 10.9514L10.501 6.48081V4.26602C10.501 3.95841 10.3096 3.67131 9.98693 3.48674L4.29975 0.205566ZM1.08977 16.2464C0.395278 16.7673 0.00154964 17.4768 0.00154964 18.2151C0.00154964 19.7532 1.66396 21 3.71463 21C4.69895 21 5.64499 20.7047 6.33948 20.1838L12.7813 15.3523C12.3548 14.4951 12.2892 13.564 12.5844 12.6822L9.21041 10.1516L1.08977 16.2464ZM28 5.9066C28 5.47595 27.9398 5.0576 27.825 4.65566C27.6938 4.19629 26.9446 4.07735 26.5016 4.40957L23.0073 7.03041C22.8433 7.15345 22.619 7.22318 22.3894 7.22318H19.2505C18.7693 7.22318 18.3755 6.92787 18.3755 6.56694V4.2086C18.3755 4.03634 18.4685 3.86818 18.6326 3.74513L22.1269 1.12429C22.5698 0.792076 22.4112 0.230175 21.7988 0.13174C21.2574 0.0456092 20.6996 0.000493043 20.1254 0.000493043C15.778 0.000493043 12.2509 2.64594 12.2509 5.9066V5.93942L16.9155 9.43797C18.8841 9.06473 21.0605 9.45847 22.6026 10.6151L23.4612 11.259C26.1407 10.3157 28 8.27315 28 5.9066ZM3.06388 17.7188C3.06388 17.4578 3.20215 17.2074 3.44828 17.0228C3.69441 16.8382 4.02823 16.7345 4.37631 16.7345C4.72438 16.7345 5.05821 16.8382 5.30433 17.0228C5.55046 17.2074 5.68874 17.4578 5.68874 17.7188C5.68874 17.9799 5.55046 18.2303 5.30433 18.4149C5.05821 18.5995 4.72438 18.7032 4.37631 18.7032C4.02823 18.7032 3.69441 18.5995 3.44828 18.4149C3.20215 18.2303 3.06388 17.9799 3.06388 17.7188Z" fill="black"/>
</svg>
